<svg width="282" height="115" viewBox="0 0 282 115" fill="none" xmlns="http://www.w3.org/2000/svg">
<g id="Group 1000002644">
<g id="Group 1000002486">
<g id="LANDCODE">
<path d="M6.10352e-05 114.452V82.45H7.25821V108.417H22.9842V114.452H6.10352e-05Z" fill="#3F3F3F"/>
<path d="M25.3329 114.452L39.3115 82.45H46.4801L60.5035 114.452H52.887L41.4173 86.1987H44.2847L32.7702 114.452H25.3329ZM32.3222 107.594L34.2488 101.971H50.378L52.3493 107.594H32.3222Z" fill="#3F3F3F"/>
<path d="M65.9976 114.452V82.45H72.0012L90.505 105.491H87.5928V82.45H94.7613V114.452H88.8025L70.2539 91.4104H73.1661V114.452H65.9976Z" fill="#3F3F3F"/>
<path d="M104.422 114.452V82.45H118.669C122.074 82.45 125.076 83.1205 127.675 84.4615C130.273 85.772 132.304 87.6159 133.768 89.9932C135.232 92.3704 135.963 95.1896 135.963 98.4507C135.963 101.681 135.232 104.501 133.768 106.908C132.304 109.286 130.273 111.145 127.675 112.486C125.076 113.796 122.074 114.452 118.669 114.452H104.422ZM111.68 108.371H118.311C120.402 108.371 122.209 107.975 123.732 107.183C125.285 106.36 126.48 105.202 127.316 103.708C128.182 102.215 128.616 100.462 128.616 98.4507C128.616 96.4087 128.182 94.6563 127.316 93.1933C126.48 91.6999 125.285 90.557 123.732 89.7646C122.209 88.9417 120.402 88.5303 118.311 88.5303H111.68V108.371Z" fill="#3F3F3F"/>
<path d="M158.686 115C156.267 115 154.012 114.604 151.921 113.811C149.86 112.989 148.068 111.83 146.545 110.337C145.021 108.844 143.827 107.091 142.96 105.08C142.124 103.068 141.706 100.858 141.706 98.4507C141.706 96.043 142.124 93.8334 142.96 91.8218C143.827 89.8103 145.021 88.0579 146.545 86.5644C148.098 85.071 149.905 83.9281 151.966 83.1357C154.027 82.3128 156.282 81.9014 158.731 81.9014C161.449 81.9014 163.898 82.389 166.079 83.3643C168.289 84.3091 170.141 85.7111 171.635 87.5702L166.975 91.959C165.9 90.7094 164.705 89.7798 163.391 89.1703C162.076 88.5303 160.643 88.2102 159.09 88.2102C157.626 88.2102 156.282 88.4541 155.057 88.9417C153.833 89.4293 152.772 90.1303 151.876 91.0447C150.98 91.959 150.278 93.041 149.77 94.2905C149.293 95.5401 149.054 96.9269 149.054 98.4507C149.054 99.9746 149.293 101.361 149.77 102.611C150.278 103.861 150.98 104.942 151.876 105.857C152.772 106.771 153.833 107.472 155.057 107.96C156.282 108.447 157.626 108.691 159.09 108.691C160.643 108.691 162.076 108.386 163.391 107.777C164.705 107.137 165.9 106.177 166.975 104.897L171.635 109.286C170.141 111.145 168.289 112.562 166.079 113.537C163.898 114.512 161.434 115 158.686 115Z" fill="#3F3F3F"/>
<path d="M193.353 115C190.874 115 188.574 114.589 186.453 113.766C184.362 112.943 182.54 111.785 180.987 110.291C179.464 108.798 178.269 107.045 177.403 105.034C176.567 103.022 176.148 100.828 176.148 98.4507C176.148 96.0735 176.567 93.8791 177.403 91.8676C178.269 89.856 179.479 88.1036 181.032 86.6102C182.585 85.1168 184.407 83.9586 186.498 83.1357C188.589 82.3128 190.859 81.9014 193.308 81.9014C195.787 81.9014 198.057 82.3128 200.118 83.1357C202.209 83.9586 204.016 85.1168 205.539 86.6102C207.093 88.1036 208.302 89.856 209.169 91.8676C210.035 93.8486 210.468 96.043 210.468 98.4507C210.468 100.828 210.035 103.038 209.169 105.08C208.302 107.091 207.093 108.844 205.539 110.337C204.016 111.8 202.209 112.943 200.118 113.766C198.057 114.589 195.802 115 193.353 115ZM193.308 108.691C194.712 108.691 195.996 108.447 197.161 107.96C198.356 107.472 199.401 106.771 200.297 105.857C201.194 104.942 201.881 103.861 202.358 102.611C202.866 101.361 203.12 99.9746 203.12 98.4507C203.12 96.9269 202.866 95.5401 202.358 94.2905C201.881 93.041 201.194 91.959 200.297 91.0447C199.431 90.1303 198.401 89.4293 197.206 88.9417C196.011 88.4541 194.712 88.2102 193.308 88.2102C191.904 88.2102 190.605 88.4541 189.41 88.9417C188.245 89.4293 187.215 90.1303 186.319 91.0447C185.423 91.959 184.721 93.041 184.213 94.2905C183.735 95.5401 183.496 96.9269 183.496 98.4507C183.496 99.9441 183.735 101.331 184.213 102.611C184.721 103.861 185.408 104.942 186.274 105.857C187.17 106.771 188.215 107.472 189.41 107.96C190.605 108.447 191.904 108.691 193.308 108.691Z" fill="#3F3F3F"/>
<path d="M218.163 114.452V82.45H232.41C235.815 82.45 238.817 83.1205 241.416 84.4615C244.014 85.772 246.045 87.6159 247.509 89.9932C248.973 92.3704 249.704 95.1896 249.704 98.4507C249.704 101.681 248.973 104.501 247.509 106.908C246.045 109.286 244.014 111.145 241.416 112.486C238.817 113.796 235.815 114.452 232.41 114.452H218.163ZM225.421 108.371H232.052C234.143 108.371 235.95 107.975 237.473 107.183C239.026 106.36 240.221 105.202 241.057 103.708C241.924 102.215 242.357 100.462 242.357 98.4507C242.357 96.4087 241.924 94.6563 241.057 93.1933C240.221 91.6999 239.026 90.557 237.473 89.7646C235.95 88.9417 234.143 88.5303 232.052 88.5303H225.421V108.371Z" fill="#3F3F3F"/>
<path d="M264.094 95.342H279.193V101.102H264.094V95.342ZM264.632 108.508H281.702V114.452H257.418V82.45H281.119V88.3931H264.632V108.508Z" fill="#3F3F3F"/>
</g>
</g>
<g id="Group 1000002589">
<g id="cube-group">
<path id="top-face" d="M140.354 12.412C140.963 11.9555 141.8 11.9555 142.408 12.412L173.652 35.8449C174.565 36.5297 174.565 37.8992 173.652 38.584L142.124 62.2299C141.516 62.6864 140.679 62.6864 140.07 62.2299L108.826 38.797C107.913 38.1122 107.913 36.7427 108.826 36.0579L140.354 12.412Z" fill="url(#paint0_linear_573_11069)" stroke="black" stroke-width="0.342391"/>
</g>
<g id="Ellipse 5" filter="url(#filter0_f_573_11069)">
<ellipse cx="141.154" cy="37.3204" rx="8.47418" ry="5.13587" fill="#DA7001"/>
</g>
<path id="Rectangle 22" d="M145.5 3.77519C143.214 1.48964 139.509 1.48964 137.223 3.77519L131.147 9.85092C128.862 12.1365 128.862 15.8421 131.147 18.1276L137.132 24.1124C139.418 26.3979 143.123 26.3979 145.409 24.1124L151.485 18.0367C153.77 15.7511 153.77 12.0455 151.485 9.75995L145.5 3.77519Z" fill="white" stroke="#5C5C5C" stroke-width="0.513587"/>
<g id="Rectangle 21" filter="url(#filter1_b_573_11069)">
<rect x="141.217" y="3.42383" width="14.7287" height="14.7372" rx="3.96888" transform="rotate(45 141.217 3.42383)" fill="#FF6A1F"/>
</g>
<path id="Line 5" d="M140.554 36.2979C140.554 36.676 140.861 36.9826 141.239 36.9826C141.617 36.9826 141.924 36.676 141.924 36.2979L140.554 36.2979ZM140.554 24.6523L140.554 36.2979L141.924 36.2979L141.924 24.6523L140.554 24.6523Z" fill="white"/>
</g>
</g>
<defs>
<filter id="filter0_f_573_11069" x="131.995" y="31.4998" width="18.318" height="11.641" filterUnits="userSpaceOnUse" color-interpolation-filters="sRGB">
<feFlood flood-opacity="0" result="BackgroundImageFix"/>
<feBlend mode="normal" in="SourceGraphic" in2="BackgroundImageFix" result="shape"/>
<feGaussianBlur stdDeviation="0.342391" result="effect1_foregroundBlur_573_11069"/>
</filter>
<filter id="filter1_b_573_11069" x="131.755" y="4.3826" width="18.9172" height="18.9174" filterUnits="userSpaceOnUse" color-interpolation-filters="sRGB">
<feFlood flood-opacity="0" result="BackgroundImageFix"/>
<feGaussianBlur in="BackgroundImageFix" stdDeviation="0.342391"/>
<feComposite in2="SourceAlpha" operator="in" result="effect1_backgroundBlur_573_11069"/>
<feBlend mode="normal" in="SourceGraphic" in2="effect1_backgroundBlur_573_11069" result="shape"/>
</filter>
<linearGradient id="paint0_linear_573_11069" x1="143.379" y1="18.6606" x2="144.982" y2="74.3145" gradientUnits="userSpaceOnUse">
<stop stop-color="#F8A919"/>
<stop offset="1" stop-color="#F93C00"/>
</linearGradient>
</defs>
</svg>
